# xmcd
#
# Track frame offsets: 
#        150
#        1928
#        17646
#        19256
#        38275
#        39868
#        52686
#        65590
#        67599
#        76493
#        89356
#        93007
#        109829
#        124367
#        125770
#        138515
#        140216
#        165859
#        172473
#        191757
#        202700
#        205024
#        215065
#        223933
#        228202
#        240459
#        241836
#        258256
#        260003
#        270440
#        272073
#
# Disc length: 3977 seconds
#
# Revision: 0
# Processed by: cddbd v1.5.2PL0 Copyright (c) Steve Scherf et al.
# Submitted via: ExactAudioCopyFreeDBPlugin 1.0
#
DISCID=ad0f871f
DTITLE=Malfunkshun - The Andrew Wood Story [CD 2 - Andrew Wood - Melod
DTITLE=ies And Dreams]
DYEAR=1995
DGENRE=Pre-Grunge
TTITLE0=Landrew (Intro)
TTITLE1=To Praise Its Name
TTITLE2=Landrew (Back From Olympus)
TTITLE3=My Star
TTITLE4=Andy (About Stone)
TTITLE5=Dream Come True
TTITLE6=Straight Laced
TTITLE7=Landrew (Reminiscing)
TTITLE8=Forever On Stage
TTITLE9=Sweet Sebastian
TTITLE10=Landrew (Interview On KRAB)
TTITLE11=Makes Me Feel Like Heaven
TTITLE12=If I Was In Charge Of The World
TTITLE13=Landrew (Flash Station ID)
TTITLE14=Justa Blue Eyed
TTITLE15=Landrews (About Movie)
TTITLE16=Drop Your Bomb
TTITLE17=Landrew (Floundersome Interview)
TTITLE18=Question Of Will
TTITLE19=This Time
TTITLE20=Landrew (About Piano)
TTITLE21=Until The Ocean (Instrumental)
TTITLE22=Evening At The RH
TTITLE23=Landrew (KCMU Interview)
TTITLE24=Cool Marmalade
TTITLE25=Landrew (KFA Station ID)
TTITLE26=Paper Buy You Nothin
TTITLE27=Landrew (Signing Off)
TTITLE28=Lord I See
TTITLE29=Chris Cornell (Living With Andy) - KISW Radio Interview
TTITLE30=Island Of Summer (Guitar, Vocals – Chris Cornell)
EXTD=
EXTT0=
EXTT1=
EXTT2=
EXTT3=
EXTT4=
EXTT5=
EXTT6=
EXTT7=
EXTT8=
EXTT9=
EXTT10=
EXTT11=
EXTT12=
EXTT13=
EXTT14=
EXTT15=
EXTT16=
EXTT17=
EXTT18=
EXTT19=
EXTT20=
EXTT21=
EXTT22=
EXTT23=
EXTT24=
EXTT25=
EXTT26=
EXTT27=
EXTT28=
EXTT29=
EXTT30=
PLAYORDER=
